<mxfile host="app.diagrams.net" modified="2020-10-28T02:59:54.014Z" agent="5.0 (Windows NT 10.0; Win64; x64) AppleWebKit/537.36 (KHTML, like Gecko) Chrome/86.0.4240.111 Safari/537.36" etag="Hysjncq6KM-KrwykPGvk" version="13.8.5" type="github">
  <diagram id="8cj-LIleG9wYIe3fzgSi" name="Page-1">
    <mxGraphModel dx="1422" dy="762" grid="1" gridSize="10" guides="1" tooltips="1" connect="1" arrows="1" fold="1" page="1" pageScale="1" pageWidth="827" pageHeight="1169" math="0" shadow="0">
      <root>
        <mxCell id="0" />
        <mxCell id="1" parent="0" />
        <mxCell id="NVVEnrGs9_rbamxWXhPe-9" value="" style="edgeStyle=orthogonalEdgeStyle;rounded=0;orthogonalLoop=1;jettySize=auto;html=1;" edge="1" parent="1" source="NVVEnrGs9_rbamxWXhPe-1" target="NVVEnrGs9_rbamxWXhPe-2">
          <mxGeometry relative="1" as="geometry" />
        </mxCell>
        <mxCell id="NVVEnrGs9_rbamxWXhPe-12" value="" style="edgeStyle=orthogonalEdgeStyle;rounded=0;orthogonalLoop=1;jettySize=auto;html=1;" edge="1" parent="1" source="NVVEnrGs9_rbamxWXhPe-1" target="NVVEnrGs9_rbamxWXhPe-3">
          <mxGeometry relative="1" as="geometry" />
        </mxCell>
        <mxCell id="NVVEnrGs9_rbamxWXhPe-1" value="soccer macth" style="rounded=0;whiteSpace=wrap;html=1;" vertex="1" parent="1">
          <mxGeometry x="50" y="20" width="120" height="60" as="geometry" />
        </mxCell>
        <mxCell id="NVVEnrGs9_rbamxWXhPe-10" value="" style="edgeStyle=orthogonalEdgeStyle;rounded=0;orthogonalLoop=1;jettySize=auto;html=1;" edge="1" parent="1" source="NVVEnrGs9_rbamxWXhPe-2" target="NVVEnrGs9_rbamxWXhPe-5">
          <mxGeometry relative="1" as="geometry" />
        </mxCell>
        <mxCell id="NVVEnrGs9_rbamxWXhPe-2" value="crear una reserva" style="rounded=0;whiteSpace=wrap;html=1;" vertex="1" parent="1">
          <mxGeometry x="50" y="120" width="120" height="60" as="geometry" />
        </mxCell>
        <mxCell id="NVVEnrGs9_rbamxWXhPe-13" value="" style="edgeStyle=orthogonalEdgeStyle;rounded=0;orthogonalLoop=1;jettySize=auto;html=1;" edge="1" parent="1" source="NVVEnrGs9_rbamxWXhPe-3" target="NVVEnrGs9_rbamxWXhPe-4">
          <mxGeometry relative="1" as="geometry" />
        </mxCell>
        <mxCell id="NVVEnrGs9_rbamxWXhPe-3" value="administrar canchas" style="rounded=0;whiteSpace=wrap;html=1;" vertex="1" parent="1">
          <mxGeometry x="490" y="20" width="120" height="60" as="geometry" />
        </mxCell>
        <mxCell id="NVVEnrGs9_rbamxWXhPe-4" value="editar información, horarios, datos importante" style="rounded=0;whiteSpace=wrap;html=1;" vertex="1" parent="1">
          <mxGeometry x="660" y="20" width="120" height="60" as="geometry" />
        </mxCell>
        <mxCell id="NVVEnrGs9_rbamxWXhPe-11" value="" style="edgeStyle=orthogonalEdgeStyle;rounded=0;orthogonalLoop=1;jettySize=auto;html=1;" edge="1" parent="1" source="NVVEnrGs9_rbamxWXhPe-5" target="NVVEnrGs9_rbamxWXhPe-7">
          <mxGeometry relative="1" as="geometry" />
        </mxCell>
        <mxCell id="NVVEnrGs9_rbamxWXhPe-5" value="definir una cancha" style="rounded=0;whiteSpace=wrap;html=1;" vertex="1" parent="1">
          <mxGeometry x="50" y="220" width="120" height="60" as="geometry" />
        </mxCell>
        <mxCell id="NVVEnrGs9_rbamxWXhPe-15" value="" style="edgeStyle=orthogonalEdgeStyle;rounded=0;orthogonalLoop=1;jettySize=auto;html=1;" edge="1" parent="1" source="NVVEnrGs9_rbamxWXhPe-7" target="NVVEnrGs9_rbamxWXhPe-14">
          <mxGeometry relative="1" as="geometry" />
        </mxCell>
        <mxCell id="NVVEnrGs9_rbamxWXhPe-7" value="definir un horario" style="rounded=0;whiteSpace=wrap;html=1;" vertex="1" parent="1">
          <mxGeometry x="50" y="320" width="120" height="60" as="geometry" />
        </mxCell>
        <mxCell id="NVVEnrGs9_rbamxWXhPe-19" value="" style="edgeStyle=orthogonalEdgeStyle;rounded=0;orthogonalLoop=1;jettySize=auto;html=1;" edge="1" parent="1" source="NVVEnrGs9_rbamxWXhPe-14" target="NVVEnrGs9_rbamxWXhPe-16">
          <mxGeometry relative="1" as="geometry" />
        </mxCell>
        <mxCell id="NVVEnrGs9_rbamxWXhPe-14" value="crear un reto" style="rounded=0;whiteSpace=wrap;html=1;" vertex="1" parent="1">
          <mxGeometry x="50" y="430" width="120" height="60" as="geometry" />
        </mxCell>
        <mxCell id="NVVEnrGs9_rbamxWXhPe-24" value="" style="edgeStyle=orthogonalEdgeStyle;rounded=0;orthogonalLoop=1;jettySize=auto;html=1;" edge="1" parent="1" source="NVVEnrGs9_rbamxWXhPe-16" target="NVVEnrGs9_rbamxWXhPe-23">
          <mxGeometry relative="1" as="geometry" />
        </mxCell>
        <mxCell id="NVVEnrGs9_rbamxWXhPe-16" value="publicar reto" style="rounded=0;whiteSpace=wrap;html=1;" vertex="1" parent="1">
          <mxGeometry x="50" y="555" width="120" height="60" as="geometry" />
        </mxCell>
        <mxCell id="NVVEnrGs9_rbamxWXhPe-28" value="" style="edgeStyle=orthogonalEdgeStyle;rounded=0;orthogonalLoop=1;jettySize=auto;html=1;" edge="1" parent="1" source="NVVEnrGs9_rbamxWXhPe-17" target="NVVEnrGs9_rbamxWXhPe-21">
          <mxGeometry relative="1" as="geometry" />
        </mxCell>
        <mxCell id="NVVEnrGs9_rbamxWXhPe-17" value="buscar reto" style="rounded=0;whiteSpace=wrap;html=1;" vertex="1" parent="1">
          <mxGeometry x="240" y="120" width="120" height="60" as="geometry" />
        </mxCell>
        <mxCell id="NVVEnrGs9_rbamxWXhPe-21" value="solicitar aprobación" style="rounded=0;whiteSpace=wrap;html=1;" vertex="1" parent="1">
          <mxGeometry x="240" y="220" width="120" height="60" as="geometry" />
        </mxCell>
        <mxCell id="NVVEnrGs9_rbamxWXhPe-22" value="&lt;span&gt;JUGAR&lt;/span&gt;" style="rounded=0;whiteSpace=wrap;html=1;" vertex="1" parent="1">
          <mxGeometry x="450" y="370" width="120" height="60" as="geometry" />
        </mxCell>
        <mxCell id="NVVEnrGs9_rbamxWXhPe-23" value="esperar un equipo" style="rounded=0;whiteSpace=wrap;html=1;" vertex="1" parent="1">
          <mxGeometry x="220" y="555" width="120" height="60" as="geometry" />
        </mxCell>
        <mxCell id="NVVEnrGs9_rbamxWXhPe-27" value="" style="endArrow=classic;html=1;exitX=1;exitY=1;exitDx=0;exitDy=0;" edge="1" parent="1" source="NVVEnrGs9_rbamxWXhPe-1" target="NVVEnrGs9_rbamxWXhPe-17">
          <mxGeometry width="50" height="50" relative="1" as="geometry">
            <mxPoint x="390" y="400" as="sourcePoint" />
            <mxPoint x="440" y="350" as="targetPoint" />
          </mxGeometry>
        </mxCell>
        <mxCell id="NVVEnrGs9_rbamxWXhPe-30" value="" style="endArrow=classic;html=1;exitX=1;exitY=0;exitDx=0;exitDy=0;entryX=0;entryY=1;entryDx=0;entryDy=0;" edge="1" parent="1" source="NVVEnrGs9_rbamxWXhPe-23" target="NVVEnrGs9_rbamxWXhPe-22">
          <mxGeometry width="50" height="50" relative="1" as="geometry">
            <mxPoint x="390" y="400" as="sourcePoint" />
            <mxPoint x="440" y="350" as="targetPoint" />
          </mxGeometry>
        </mxCell>
        <mxCell id="NVVEnrGs9_rbamxWXhPe-31" value="" style="endArrow=classic;html=1;exitX=1;exitY=1;exitDx=0;exitDy=0;entryX=0;entryY=0;entryDx=0;entryDy=0;" edge="1" parent="1" source="NVVEnrGs9_rbamxWXhPe-21" target="NVVEnrGs9_rbamxWXhPe-22">
          <mxGeometry width="50" height="50" relative="1" as="geometry">
            <mxPoint x="390" y="400" as="sourcePoint" />
            <mxPoint x="440" y="350" as="targetPoint" />
          </mxGeometry>
        </mxCell>
        <mxCell id="NVVEnrGs9_rbamxWXhPe-32" value="equipos" style="rounded=0;whiteSpace=wrap;html=1;" vertex="1" parent="1">
          <mxGeometry x="490" y="130" width="120" height="60" as="geometry" />
        </mxCell>
        <mxCell id="NVVEnrGs9_rbamxWXhPe-33" value="" style="endArrow=classic;html=1;" edge="1" parent="1" source="NVVEnrGs9_rbamxWXhPe-1" target="NVVEnrGs9_rbamxWXhPe-32">
          <mxGeometry width="50" height="50" relative="1" as="geometry">
            <mxPoint x="390" y="400" as="sourcePoint" />
            <mxPoint x="440" y="350" as="targetPoint" />
          </mxGeometry>
        </mxCell>
        <mxCell id="NVVEnrGs9_rbamxWXhPe-34" value="editar informacion" style="rounded=0;whiteSpace=wrap;html=1;" vertex="1" parent="1">
          <mxGeometry x="660" y="130" width="120" height="60" as="geometry" />
        </mxCell>
        <mxCell id="NVVEnrGs9_rbamxWXhPe-35" value="administrar jugadores" style="rounded=0;whiteSpace=wrap;html=1;" vertex="1" parent="1">
          <mxGeometry x="610" y="240" width="120" height="60" as="geometry" />
        </mxCell>
        <mxCell id="NVVEnrGs9_rbamxWXhPe-36" value="" style="endArrow=classic;html=1;exitX=1;exitY=1;exitDx=0;exitDy=0;" edge="1" parent="1" source="NVVEnrGs9_rbamxWXhPe-32" target="NVVEnrGs9_rbamxWXhPe-35">
          <mxGeometry width="50" height="50" relative="1" as="geometry">
            <mxPoint x="390" y="290" as="sourcePoint" />
            <mxPoint x="440" y="240" as="targetPoint" />
          </mxGeometry>
        </mxCell>
        <mxCell id="NVVEnrGs9_rbamxWXhPe-37" value="" style="endArrow=classic;html=1;exitX=1;exitY=0.5;exitDx=0;exitDy=0;" edge="1" parent="1" source="NVVEnrGs9_rbamxWXhPe-32" target="NVVEnrGs9_rbamxWXhPe-34">
          <mxGeometry width="50" height="50" relative="1" as="geometry">
            <mxPoint x="390" y="290" as="sourcePoint" />
            <mxPoint x="440" y="240" as="targetPoint" />
          </mxGeometry>
        </mxCell>
      </root>
    </mxGraphModel>
  </diagram>
</mxfile>
